<svg xmlns="http://www.w3.org/2000/svg" viewBox="0 0 512 512"><defs><linearGradient id="s"><stop stop-color="#fff"/><stop offset="1" stop-color="#9da5aa"/></linearGradient><linearGradient id="g"><stop stop-color="#3cff4e"/><stop offset="1" stop-color="#087d18"/></linearGradient></defs><rect width="512" height="512" rx="90" fill="#050607"/><path d="M256 38 430 99l-17 190c-10 84-66 148-157 187-91-39-147-103-157-187L82 99Z" fill="#090b0d" stroke="url(#s)" stroke-width="18"/><path d="M143 207c0-76 55-119 134-119 43 0 79 11 109 33l-39 58c-20-13-43-19-69-19-41 0-66 21-66 56 0 39 27 60 70 60 26 0 49-8 69-23l40 57c-33 28-74 42-121 42-80 0-127-56-127-185Z" fill="url(#s)"/><circle cx="278" cy="219" r="73" fill="#071409" stroke="#31ef45" stroke-width="5"/><circle cx="278" cy="219" r="52" fill="none" stroke="#31ef45" stroke-width="3"/><circle cx="278" cy="219" r="28" fill="none" stroke="#31ef45" stroke-width="3"/><path d="M278 146v146M205 219h146M227 168l102 102M329 168 227 270" stroke="#31ef45" stroke-width="3" opacity=".8"/><circle cx="278" cy="219" r="8" fill="#ff2c2c"/><path d="M270 94h143v70h-82l-7 41c23-12 46-17 69-17 68 0 112 42 112 105 0 76-60 121-140 121-47 0-89-13-124-38l37-61c23 15 48 22 74 22 38 0 59-15 59-41 0-26-21-39-55-39-23 0-46 5-68 17l-50-31Z" fill="url(#s)"/><path d="M140 356h232l-18 72H158Z" fill="#0a0c0f" stroke="url(#s)" stroke-width="7"/><text x="174" y="407" font-family="Arial,Helvetica,sans-serif" font-size="45" font-weight="800" letter-spacing="4" fill="#fff">SECURITY</text></svg>