<svg xmlns="http://www.w3.org/2000/svg" viewBox="0 0 512 512"><defs><linearGradient id="g"><stop stop-color="#e2c58d"/><stop offset="1" stop-color="#8b6d38"/></linearGradient><linearGradient id="t"><stop stop-color="#21a0a6"/><stop offset="1" stop-color="#0d555a"/></linearGradient></defs><rect width="512" height="512" rx="90" fill="#101820"/><path d="M256 42 432 104l-17 189c-10 84-67 149-159 188-92-39-149-104-159-188L80 104Z" fill="#101820" stroke="url(#g)" stroke-width="18"/><path d="M144 208c0-76 55-119 134-119 46 0 85 13 117 38l-42 57c-20-14-45-21-73-21-41 0-66 21-66 56 0 39 27 60 70 60h28v-29h-42v-52h125v140c-33 29-75 43-123 43-80 0-128-56-128-173Z" fill="#fff"/><path d="M267 98h145v70h-83l-7 41c23-12 46-17 69-17 69 0 114 42 114 106 0 77-61 122-142 122-47 0-90-13-125-38l38-62c23 15 48 22 75 22 38 0 60-15 60-42 0-26-21-39-56-39-23 0-46 5-69 17l-51-31Z" fill="url(#t)"/></svg>