<svg xmlns="http://www.w3.org/2000/svg" width="1100" height="240" viewBox="0 0 1100 240" role="img" aria-labelledby="t"><title id="t">G5 Consultants Security and Protection</title><defs><linearGradient id="s" x1="0" x2="1"><stop stop-color="#fff"/><stop offset="1" stop-color="#aeb7bc"/></linearGradient><linearGradient id="g" x1="0" x2="1"><stop stop-color="#e0c184"/><stop offset="1" stop-color="#8d713e"/></linearGradient><linearGradient id="q" x1="0" x2="1"><stop stop-color="#20a1a7"/><stop offset="1" stop-color="#0d555a"/></linearGradient></defs><g transform="translate(8 8)"><path d="M105 3 198 35l-9 100c-5 45-35 78-84 99-49-21-79-54-84-99L12 35Z" fill="#101820" stroke="url(#g)" stroke-width="7"/><path d="M105 18 184 45l-7 86c-4 36-27 64-72 84-45-20-68-48-72-84l-7-86Z" fill="none" stroke="#167d83" stroke-width="3"/><path d="M55 78c0-36 26-57 64-57 23 0 41 6 56 18l-20 27c-10-7-21-10-35-10-20 0-32 10-32 27 0 19 13 29 34 29h13V98h-20V73h60v67c-16 14-36 20-59 20-38 0-61-27-61-82Z" fill="url(#s)"/><path d="M116 25h70v34h-40l-3 20c11-6 22-8 33-8 34 0 55 20 55 51 0 37-29 59-68 59-23 0-43-6-60-18l18-30c11 7 23 10 36 10 18 0 29-7 29-20 0-12-10-19-27-19-11 0-22 3-33 8l-24-15Z" fill="url(#q)"/></g><g transform="translate(250 37)"><text x="0" y="73" font-family="Arial,Helvetica,sans-serif" font-size="68" font-weight="800" fill="#fff">G5</text><text x="104" y="73" font-family="Arial,Helvetica,sans-serif" font-size="59" font-weight="500" letter-spacing="5" fill="#fff">CONSULTANTS</text><rect y="102" width="750" height="2" fill="#167d83"/><text x="2" y="148" font-family="Arial,Helvetica,sans-serif" font-size="22" font-weight="600" letter-spacing="11" fill="#b59a62">SECURITY &amp; PROTECTION</text></g></svg>