<svg xmlns="http://www.w3.org/2000/svg" width="1100" height="240" viewBox="0 0 1100 240" role="img" aria-labelledby="t"><title id="t">C5 Consultants Security and Protection</title><defs><linearGradient id="s" x1="0" x2="1"><stop stop-color="#fff"/><stop offset="1" stop-color="#aeb7bc"/></linearGradient><linearGradient id="g" x1="0" x2="1"><stop stop-color="#e0c184"/><stop offset="1" stop-color="#8d713e"/></linearGradient><linearGradient id="q" x1="0" x2="1"><stop stop-color="#34ff43"/><stop offset="1" stop-color="#087d18"/></linearGradient></defs><g transform="translate(8 8)"><path d="M105 3 198 35l-9 100c-5 45-35 78-84 99-49-21-79-54-84-99L12 35Z" fill="#07090b" stroke="url(#s)" stroke-width="7"/><path d="M105 18 184 45l-7 86c-4 36-27 64-72 84-45-20-68-48-72-84l-7-86Z" fill="none" stroke="#3f474c" stroke-width="3"/><path d="M57 78c0-36 26-57 64-57 20 0 38 5 53 15l-19 28c-10-6-21-9-34-9-20 0-32 10-32 27 0 19 13 29 34 29 13 0 25-4 35-11l19 27c-16 13-35 19-57 19-38 0-63-27-63-68Z" fill="url(#s)"/><circle cx="121" cy="84" r="26" fill="#061208" stroke="#31ef45" stroke-width="2"/><circle cx="121" cy="84" r="18" fill="none" stroke="#31ef45" stroke-width="1"/><circle cx="121" cy="84" r="9" fill="none" stroke="#31ef45" stroke-width="1"/><path d="M121 56v56M93 84h56M101 64l40 40M141 64l-40 40" stroke="#31ef45" stroke-width="1" opacity=".8"/><circle cx="121" cy="84" r="3.5" fill="#ff3030"/><path d="M116 25h70v34h-40l-3 20c11-6 22-8 33-8 34 0 55 20 55 51 0 37-29 59-68 59-23 0-43-6-60-18l18-30c11 7 23 10 36 10 18 0 29-7 29-20 0-12-10-19-27-19-11 0-22 3-33 8l-24-15Z" fill="url(#s)"/><path d="M40 154h130l-10 40H50Z" fill="#0a0c0f" stroke="url(#s)" stroke-width="3"/><text x="62" y="183" font-family="Arial,Helvetica,sans-serif" font-size="25" font-weight="800" letter-spacing="2" fill="#fff">SECURITY</text></g><g transform="translate(250 37)"><text x="0" y="73" font-family="Arial,Helvetica,sans-serif" font-size="68" font-weight="800" fill="#fff">C5</text><text x="104" y="73" font-family="Arial,Helvetica,sans-serif" font-size="59" font-weight="500" letter-spacing="5" fill="#fff">CONSULTANTS</text><rect y="102" width="750" height="2" fill="#31ef45" opacity=".65"/><text x="2" y="148" font-family="Arial,Helvetica,sans-serif" font-size="22" font-weight="600" letter-spacing="11" fill="#bfc4c7">SECURITY &amp; PROTECTION</text></g></svg>