<svg xmlns="http://www.w3.org/2000/svg" width="1200" height="630" viewBox="0 0 1200 630"><defs><linearGradient id="bg" x1="0" x2="1"><stop stop-color="#071017"/><stop offset=".62" stop-color="#101820"/><stop offset="1" stop-color="#0d555a"/></linearGradient><linearGradient id="gold" x1="0" x2="1"><stop stop-color="#e2c58d"/><stop offset="1" stop-color="#8b6d38"/></linearGradient></defs><rect width="1200" height="630" fill="url(#bg)"/><g opacity=".12" stroke="#fff"><path d="M0 120h1200M0 240h1200M0 360h1200M0 480h1200"/><path d="M160 0v630M320 0v630M480 0v630M640 0v630M800 0v630M960 0v630"/></g><g transform="translate(70 80)"><path d="M160 0 290 45l-12 140c-8 63-49 109-118 139-69-30-110-76-118-139L30 45Z" fill="#101820" stroke="url(#gold)" stroke-width="12"/><text x="70" y="175" font-family="Arial" font-size="118" font-weight="900" fill="#fff">G</text><text x="156" y="175" font-family="Arial" font-size="118" font-weight="900" fill="#167d83">5</text></g><g transform="translate(390 100)"><text x="0" y="75" font-family="Arial" font-size="68" font-weight="800" fill="#fff">G5 CONSULTANTS</text><text x="3" y="122" font-family="Arial" font-size="24" font-weight="600" letter-spacing="10" fill="#b59a62">SECURITY &amp; PROTECTION</text><rect x="0" y="160" width="700" height="3" fill="#167d83"/><text x="0" y="260" font-family="Arial" font-size="62" font-weight="800" fill="#fff">ELITE SECURITY.</text><text x="0" y="330" font-family="Arial" font-size="62" font-weight="800" fill="#2aa1a5">LOCAL EXPERTISE.</text><text x="0" y="400" font-family="Arial" font-size="24" fill="#d8dee1">Armed Security &amp; Executive Protection · Tampa Bay</text></g><path d="M0 565h1200v65H0z" fill="#0b1319"/><text x="70" y="607" font-family="Arial" font-size="19" letter-spacing="7" fill="#b59a62">PROTECTION WITHOUT COMPROMISE</text></svg>