<svg xmlns="http://www.w3.org/2000/svg" width="1200" height="630" viewBox="0 0 1200 630"><defs><linearGradient id="bg" x1="0" x2="1"><stop stop-color="#020304"/><stop offset=".62" stop-color="#101820"/><stop offset="1" stop-color="#0d2414"/></linearGradient><linearGradient id="silver" x1="0" x2="1"><stop stop-color="#fff"/><stop offset="1" stop-color="#9da5aa"/></linearGradient><linearGradient id="green" x1="0" x2="1"><stop stop-color="#42ff55"/><stop offset="1" stop-color="#087d18"/></linearGradient></defs><rect width="1200" height="630" fill="url(#bg)"/><g opacity=".12" stroke="#fff"><path d="M0 120h1200M0 240h1200M0 360h1200M0 480h1200"/><path d="M160 0v630M320 0v630M480 0v630M640 0v630M800 0v630M960 0v630"/></g><g transform="translate(65 70)"><path d="M160 0 290 45l-12 140c-8 63-49 109-118 139-69-30-110-76-118-139L30 45Z" fill="#080a0c" stroke="url(#silver)" stroke-width="12"/><text x="62" y="175" font-family="Arial" font-size="118" font-weight="900" fill="url(#silver)">C</text><circle cx="151" cy="130" r="45" fill="#051108" stroke="#31ef45" stroke-width="3"/><circle cx="151" cy="130" r="29" fill="none" stroke="#31ef45"/><path d="M151 85v90M106 130h90" stroke="#31ef45"/><circle cx="151" cy="130" r="5" fill="#ff2c2c"/><text x="165" y="175" font-family="Arial" font-size="118" font-weight="900" fill="url(#silver)">5</text><path d="M55 225h210l-15 62H70Z" fill="#080a0c" stroke="url(#silver)" stroke-width="4"/><text x="92" y="269" font-family="Arial" font-size="38" font-weight="900" letter-spacing="3" fill="#fff">SECURITY</text></g><g transform="translate(390 100)"><text x="0" y="75" font-family="Arial" font-size="68" font-weight="800" fill="#fff">C5 CONSULTANTS</text><text x="3" y="122" font-family="Arial" font-size="24" font-weight="600" letter-spacing="10" fill="#c0c5c8">SECURITY &amp; PROTECTION</text><rect x="0" y="160" width="700" height="3" fill="#31ef45" opacity=".7"/><text x="0" y="260" font-family="Arial" font-size="62" font-weight="800" fill="#fff">ELITE SECURITY.</text><text x="0" y="330" font-family="Arial" font-size="62" font-weight="800" fill="#31ef45">LOCAL EXPERTISE.</text><text x="0" y="400" font-family="Arial" font-size="24" fill="#d8dee1">Armed Security &amp; Executive Protection · Tampa Bay</text></g><path d="M0 565h1200v65H0z" fill="#050708"/><text x="70" y="607" font-family="Arial" font-size="19" letter-spacing="7" fill="#c0c5c8">PROTECTION WITHOUT COMPROMISE</text></svg>